<svg width="23" height="24" viewBox="0 0 23 24" fill="none" xmlns="http://www.w3.org/2000/svg">
<path d="M6.44184 9.79541H3.78115C3.5552 9.79541 3.37231 9.97321 3.37231 10.1929V12.7796C3.37231 12.999 3.5552 13.1771 3.78115 13.1771H6.44184C6.66779 13.1771 6.85067 12.999 6.85067 12.7796V10.1929C6.85067 9.97348 6.66779 9.79541 6.44184 9.79541ZM6.033 12.3821H4.18998V10.5903H6.033V12.3821Z" fill="#E83C3C"/>
<path d="M12.6474 9.79541H9.98671C9.76077 9.79541 9.57788 9.97321 9.57788 10.1929V12.7796C9.57788 12.999 9.76077 13.1771 9.98671 13.1771H12.6474C12.8731 13.1771 13.0562 12.999 13.0562 12.7796V10.1929C13.0562 9.97348 12.8731 9.79541 12.6474 9.79541ZM12.2386 12.3821H10.3955V10.5903H12.2386V12.3821Z" fill="#E83C3C"/>
<path d="M18.6618 9.79541H16.0011C15.7754 9.79541 15.5923 9.97321 15.5923 10.1929V12.7796C15.5923 12.999 15.7754 13.1771 16.0011 13.1771H18.6618C18.8875 13.1771 19.0706 12.999 19.0706 12.7796V10.1929C19.0706 9.97348 18.8875 9.79541 18.6618 9.79541ZM18.253 12.3821H16.41V10.5903H18.253V12.3821Z" fill="#E83C3C"/>
<path d="M6.44184 15.6875H3.78115C3.5552 15.6875 3.37231 15.8656 3.37231 16.085V18.6717C3.37231 18.8911 3.5552 19.0692 3.78115 19.0692H6.44184C6.66779 19.0692 6.85067 18.8911 6.85067 18.6717V16.085C6.85067 15.8656 6.66779 15.6875 6.44184 15.6875ZM6.033 18.2742H4.18998V16.4824H6.033V18.2742Z" fill="#E83C3C"/>
<path d="M12.6474 15.6875H9.98671C9.76077 15.6875 9.57788 15.8656 9.57788 16.085V18.6717C9.57788 18.8911 9.76077 19.0692 9.98671 19.0692H12.6474C12.8731 19.0692 13.0562 18.8911 13.0562 18.6717V16.085C13.0562 15.8656 12.8731 15.6875 12.6474 15.6875ZM12.2386 18.2742H10.3955V16.4824H12.2386V18.2742Z" fill="#E83C3C"/>
<path d="M18.6618 15.6875H16.0011C15.7754 15.6875 15.5923 15.8656 15.5923 16.085V18.6717C15.5923 18.8911 15.7754 19.0692 16.0011 19.0692H18.6618C18.8875 19.0692 19.0706 18.8911 19.0706 18.6717V16.085C19.0706 15.8656 18.8875 15.6875 18.6618 15.6875ZM18.253 18.2742H16.41V16.4824H18.253V18.2742Z" fill="#E83C3C"/>
<path d="M21.8995 2.09864H19.1993C19.1958 2.09864 19.1928 2.09944 19.1892 2.0997V1.57027C19.1892 0.704317 18.4648 0 17.5741 0C16.6833 0 15.9589 0.704582 15.9589 1.57027V2.09864H12.9164V1.57027C12.9164 0.704317 12.1919 0 11.3012 0C10.4105 0 9.68602 0.704582 9.68602 1.57027V2.09864H6.64321V1.57027C6.64321 0.704317 5.91876 0 5.02805 0C4.13733 0 3.41288 0.704582 3.41288 1.57027V2.09891C3.41152 2.09891 3.41015 2.09864 3.40879 2.09864H0.709127C0.483178 2.09864 0.300293 2.27644 0.300293 2.49611V23.0973C0.300293 23.3167 0.483178 23.4947 0.709127 23.4947H21.8995C22.1252 23.4947 22.3084 23.3167 22.3084 23.0973V2.49611C22.3084 2.27644 22.1252 2.09864 21.8995 2.09864ZM16.7766 1.57027C16.7766 1.14259 17.1342 0.79494 17.5741 0.79494C18.014 0.79494 18.3716 1.14259 18.3716 1.57027V3.76351C18.3716 4.19093 18.014 4.53884 17.5741 4.53884C17.1342 4.53884 16.7766 4.19119 16.7766 3.76351V1.57027ZM11.3012 0.79494C11.7408 0.79494 12.0987 1.14259 12.0987 1.57027V3.76351C12.0987 4.19093 11.7411 4.53884 11.3012 4.53884C10.8613 4.53884 10.5037 4.19119 10.5037 3.76351V2.53321C10.5048 2.52076 10.5075 2.50883 10.5075 2.49585C10.5075 2.48286 10.5048 2.47094 10.5037 2.45849V1.57027C10.5037 1.14259 10.8613 0.79494 11.3012 0.79494ZM4.23055 1.57027C4.23055 1.14259 4.58814 0.79494 5.02805 0.79494C5.46768 0.79494 5.82554 1.14259 5.82554 1.57027V3.76351C5.82554 4.19093 5.46795 4.53884 5.02805 4.53884C4.58814 4.53884 4.23055 4.19119 4.23055 3.76351V1.57027ZM21.4907 22.6998H1.11796V2.89358H3.40879C3.41015 2.89358 3.41152 2.89332 3.41288 2.89332V3.76378C3.41288 4.62973 4.13761 5.33405 5.02805 5.33405C5.91848 5.33405 6.64321 4.62973 6.64321 3.76378V2.89385H9.68602V3.76378C9.68602 4.62973 10.4107 5.33405 11.3012 5.33405C12.1916 5.33405 12.9164 4.62973 12.9164 3.76378V2.89385H15.9589V3.76378C15.9589 4.62973 16.6833 5.33405 17.5741 5.33405C18.4648 5.33405 19.1892 4.62973 19.1892 3.76378V2.89252C19.1928 2.89252 19.1958 2.89358 19.1993 2.89358H21.4907V22.6998Z" fill="#E83C3C"/>
</svg>
