<svg width="122" height="19" viewBox="0 0 122 19" fill="none" xmlns="http://www.w3.org/2000/svg">
<path d="M8.52653 5.73542C8.75886 5.50985 9.1376 5.50985 9.36993 5.73542C9.60226 5.96099 9.60226 6.32871 9.36993 6.55428C9.1376 6.77985 8.75886 6.77985 8.52653 6.55428C8.29101 6.32871 8.29101 5.96099 8.52653 5.73542ZM5.91038 2.54034L6.20637 4.54886L5.23566 5.49131L6.07906 6.31017L6.41642 5.98263L6.75378 8.27542L12.6608 9.09428L11.8174 8.27542C14.615 5.55929 17.8263 4.27693 18.9911 5.40788L13.9275 0.49166C12.7626 -0.639287 9.54816 0.643071 6.75378 3.3592L5.91038 2.54034Z" fill="url(#paint0_linear)"/>
<path d="M2.17698 7.43701C0.229193 9.78543 -0.560107 12.1555 0.423335 13.1103L5.48695 18.0265C4.5035 17.0717 5.2928 14.7016 7.24059 12.3563L2.17698 7.43701Z" fill="#E83C3C"/>
<path d="M10.8881 12.7832C10.6558 13.0087 10.277 13.0087 10.0447 12.7832C9.81237 12.5576 9.81237 12.1899 10.0447 11.9643C10.277 11.7387 10.6558 11.7387 10.8881 11.9643C11.1204 12.1899 11.1204 12.5545 10.8881 12.7832ZM13.5043 15.9782L13.2083 13.9697L14.179 13.0273L13.3356 12.2084L12.9982 12.536L12.6608 10.2432L6.75383 9.42432L7.59724 10.2432C4.79968 12.9593 1.58838 14.2417 0.423523 13.1107L5.48713 18.0269C6.65199 19.1579 9.86329 17.8755 12.6608 15.1594L13.5043 15.9782Z" fill="url(#paint1_linear)"/>
<path d="M17.6002 10.1229C19.2743 7.93208 19.9076 5.80615 18.9879 4.91622L13.9274 0C14.844 0.889926 14.2139 3.01586 12.5398 5.20668L17.6002 10.1229Z" fill="#FFE600"/>
<path fill-rule="evenodd" clip-rule="evenodd" d="M116.946 10.6709V12.3345V12.3379H121.308V14.0767H115.074V5.75191H121.154V7.49406H116.946V8.93219H120.84V10.6709H116.946ZM108.174 9.9604C107.847 9.7691 107.576 9.52315 107.365 9.21913C107.154 8.91511 107.048 8.51544 107.045 8.02012C107.045 7.7161 107.115 7.42574 107.256 7.14221C107.397 6.8621 107.601 6.61274 107.865 6.39411C108.128 6.17549 108.449 6.00127 108.822 5.87147C109.198 5.73824 109.617 5.67334 110.085 5.67334C110.574 5.67334 111.01 5.74166 111.394 5.8783C111.777 6.01494 112.108 6.1994 112.382 6.43169C112.66 6.66397 112.871 6.94409 113.023 7.27202C113.174 7.59995 113.258 7.9518 113.279 8.32414H111.408C111.365 7.98254 111.246 7.71951 111.049 7.53847C110.848 7.35742 110.553 7.26519 110.159 7.26519C109.807 7.26519 109.536 7.34376 109.349 7.50089C109.163 7.65803 109.068 7.83224 109.068 8.02354C109.068 8.25582 109.173 8.43345 109.388 8.55301C109.599 8.67257 109.87 8.78188 110.197 8.87753C110.524 8.97318 110.876 9.07566 111.249 9.18156C111.622 9.28745 111.974 9.43775 112.301 9.63588C112.628 9.83401 112.896 10.0902 113.111 10.4079C113.325 10.7256 113.431 11.1389 113.431 11.6547C113.431 11.9997 113.357 12.3208 113.213 12.6249C113.068 12.9289 112.861 13.1953 112.59 13.4208C112.319 13.6462 111.985 13.8273 111.584 13.9571C111.186 14.0903 110.736 14.1552 110.236 14.1552C109.705 14.1552 109.237 14.0869 108.832 13.9503C108.428 13.8136 108.079 13.6257 107.787 13.3832C107.495 13.1407 107.27 12.8503 107.108 12.519C106.95 12.1876 106.848 11.8221 106.806 11.4293H108.755C108.836 11.7709 108.983 12.0476 109.191 12.2525C109.399 12.4609 109.722 12.5634 110.159 12.5634C110.574 12.5634 110.887 12.478 111.094 12.3072C111.302 12.133 111.408 11.9178 111.408 11.6547C111.408 11.4122 111.302 11.2243 111.087 11.0877C110.876 10.9545 110.605 10.8315 110.278 10.7256C109.951 10.6197 109.599 10.5138 109.226 10.4079C108.853 10.302 108.501 10.1517 108.174 9.9604ZM104.22 13.1509C103.892 13.4652 103.505 13.7077 103.058 13.8854C102.612 14.063 102.123 14.1518 101.595 14.1484C101.064 14.1484 100.574 14.063 100.128 13.8854C99.6808 13.7077 99.2938 13.4652 98.9666 13.1509C98.6394 12.8401 98.386 12.4711 98.2031 12.0476C98.0236 11.624 97.9322 11.1662 97.9322 10.6709V5.75191H99.8039V10.6709C99.8039 11.2038 99.9623 11.6274 100.286 11.9417C100.606 12.2525 101.042 12.4097 101.595 12.4097C102.144 12.4097 102.58 12.2559 102.904 11.9417C103.224 11.6308 103.386 11.2072 103.386 10.6709V5.75191H105.257V10.6709C105.257 11.1662 105.166 11.624 104.983 12.0476C104.8 12.4711 104.547 12.8367 104.22 13.1509ZM95.2687 12.9084C94.8676 13.291 94.3997 13.595 93.8579 13.817C93.3195 14.0391 92.7355 14.1484 92.1127 14.1484C91.49 14.1484 90.9059 14.0391 90.3676 13.817C89.8258 13.595 89.3578 13.291 88.9567 12.9084C88.5556 12.5258 88.2425 12.0783 88.0138 11.5625C87.7851 11.0467 87.6725 10.4967 87.6725 9.91258C87.6725 9.32844 87.7851 8.77847 88.0138 8.26265C88.2425 7.75026 88.5556 7.29935 88.9567 6.91676C89.3578 6.53417 89.8258 6.23015 90.3676 6.00811C90.9059 5.78948 91.49 5.67676 92.1127 5.67676C92.7355 5.67676 93.316 5.78607 93.8579 6.00811C94.3997 6.23015 94.8676 6.53417 95.2687 6.91676C95.6698 7.29935 95.983 7.74684 96.2117 8.26265C96.4439 8.77847 96.5565 9.32844 96.5565 9.91258C96.5565 10.4967 96.4404 11.0467 96.2117 11.5625C95.983 12.0749 95.6698 12.5258 95.2687 12.9084ZM90.2761 11.6991C90.5048 11.9212 90.7722 12.0954 91.0854 12.2218C91.395 12.3482 91.7398 12.4097 92.1127 12.4097C92.4857 12.4097 92.827 12.3482 93.1401 12.2218C93.4497 12.0954 93.7206 11.9212 93.9493 11.6991C94.178 11.4771 94.3575 11.2175 94.4876 10.9135C94.6178 10.6129 94.6812 10.2781 94.6812 9.91599C94.6812 9.5539 94.6178 9.22255 94.4876 8.91852C94.3575 8.61792 94.178 8.35489 93.9493 8.13285C93.7206 7.91081 93.4532 7.73659 93.1401 7.6102C92.8305 7.48723 92.4857 7.42232 92.1127 7.42232C91.7398 7.42232 91.3985 7.48381 91.0854 7.6102C90.7757 7.73659 90.5048 7.91081 90.2761 8.13285C90.0474 8.35489 89.868 8.6145 89.7378 8.91852C89.6076 9.21913 89.5443 9.5539 89.5443 9.91599C89.5443 10.2781 89.6076 10.6094 89.7378 10.9135C89.868 11.2141 90.0474 11.4771 90.2761 11.6991ZM78.9715 14.0767V5.75191H80.8433V8.92877H84.3512V5.75191H86.2229V14.0767H84.3512V10.5958H80.8433V14.0767H78.9715ZM69.6157 5.75576H71.7197L73.5915 9.1615L75.4633 5.75576H77.5673L74.5274 10.9754V14.0771H72.6556V10.9754L69.6157 5.75576ZM67.3323 13.1548C67.0051 13.4691 66.6181 13.7116 66.1712 13.8892C65.7244 14.0668 65.2353 14.1523 64.7076 14.1557C64.1798 14.1557 63.6908 14.0668 63.2439 13.8892C62.7971 13.7116 62.4101 13.4691 62.0829 13.1548C61.7556 12.8439 61.5023 12.475 61.3194 12.0514C61.1364 11.6278 61.0449 11.1701 61.0449 10.6748V5.75576H62.9167V10.6748C62.9167 11.2077 63.075 11.6347 63.3987 11.9455C63.7189 12.2564 64.1587 12.4135 64.7076 12.4135C65.2564 12.4135 65.6927 12.2598 66.0164 11.9455C66.3366 11.6347 66.4984 11.2077 66.4984 10.6748V5.75576H68.3702V10.6748C68.3702 11.1701 68.2787 11.6278 68.0958 12.0514C67.9128 12.475 67.6595 12.8439 67.3323 13.1548ZM56.2881 7.41935H54.4972V8.93604H56.2881C56.5555 8.93604 56.7806 8.86772 56.9565 8.73108C57.1325 8.59444 57.2204 8.40998 57.2204 8.17769C57.2204 7.94541 57.1325 7.76094 56.9565 7.6243C56.7806 7.48767 56.559 7.41935 56.2881 7.41935ZM57.3014 10.8524C57.0938 10.6816 56.8369 10.5962 56.5238 10.5962V10.5928H54.4972V12.4101H56.5238C56.8334 12.4101 57.0938 12.3247 57.3014 12.1539C57.5089 11.9797 57.6145 11.7645 57.6145 11.5014C57.6145 11.2418 57.5089 11.0232 57.3014 10.8524ZM58.9761 8.7345C58.8459 8.96679 58.7087 9.15466 58.5645 9.29472C58.378 9.46894 58.1739 9.59874 57.9558 9.69097C58.2372 9.79345 58.4906 9.93351 58.7193 10.1146C58.9057 10.2751 59.0781 10.4869 59.24 10.7499C59.4018 11.013 59.4828 11.3409 59.4828 11.7337C59.4828 12.0583 59.4194 12.3589 59.2892 12.6424C59.1591 12.9259 58.9691 13.1719 58.7263 13.3837C58.48 13.5954 58.1845 13.7628 57.8361 13.8892C57.4878 14.0156 57.1008 14.0771 56.6751 14.0771H52.6219V5.75235H56.5203C56.9249 5.75235 57.2908 5.81042 57.618 5.92656C57.9452 6.0427 58.2232 6.19642 58.4519 6.38772C58.6806 6.57901 58.86 6.80447 58.9831 7.06067C59.1063 7.31687 59.1696 7.58673 59.1696 7.87026C59.1696 8.21527 59.1063 8.50221 58.9761 8.7345ZM43.2981 5.75576H45.4021L47.2739 9.1615L49.1457 5.75576H51.2497L48.2098 10.9754V14.0771H46.338V10.9754L43.2981 5.75576ZM41.0147 13.1548C40.6875 13.4691 40.3005 13.7116 39.8536 13.8892C39.4068 14.0668 38.9177 14.1523 38.3865 14.1557C37.8587 14.1557 37.3696 14.0668 36.9228 13.8892C36.476 13.7116 36.0889 13.4691 35.7617 13.1548C35.4345 12.8439 35.1812 12.475 34.9982 12.0514C34.8188 11.6278 34.7273 11.1701 34.7273 10.6748V5.75576H36.5991V10.6748C36.5991 11.2077 36.7574 11.6347 37.0811 11.9455C37.4013 12.2564 37.8376 12.4135 38.39 12.4135C38.9388 12.4135 39.3751 12.2598 39.6988 11.9455C40.019 11.6347 40.1808 11.2077 40.1808 10.6748V5.75576H42.0526V10.6748C42.0526 11.1701 41.9611 11.6278 41.7782 12.0514C41.5952 12.475 41.3419 12.8439 41.0147 13.1548ZM29.974 7.41935H28.1796V8.93604H29.974C30.2414 8.93604 30.4665 8.86772 30.6425 8.73108C30.8184 8.59444 30.9063 8.40998 30.9063 8.17769C30.9063 7.94541 30.8184 7.76094 30.6425 7.6243C30.4665 7.48767 30.2449 7.41935 29.974 7.41935ZM30.9802 10.8524C30.7726 10.6816 30.5158 10.5962 30.2027 10.5962V10.5928H28.1761V12.4101H30.2027C30.5123 12.4101 30.7726 12.3247 30.9802 12.1539C31.1878 11.9797 31.2934 11.7645 31.2934 11.5014C31.2934 11.2418 31.1878 11.0232 30.9802 10.8524ZM32.6585 8.7345C32.5283 8.96679 32.3911 9.15466 32.2469 9.29472C32.0604 9.46894 31.8563 9.59874 31.6417 9.69097C31.9232 9.79345 32.1765 9.93351 32.4052 10.1146C32.5917 10.2751 32.7641 10.4869 32.9259 10.7499C33.0877 11.013 33.1687 11.3409 33.1687 11.7337C33.1687 12.0583 33.1053 12.3589 32.9752 12.6424C32.8415 12.9259 32.655 13.1719 32.4122 13.3837C32.1659 13.5954 31.8704 13.7628 31.5221 13.8892C31.1737 14.0156 30.7867 14.0771 30.361 14.0771H26.3078V5.75235H30.2027C30.6073 5.75235 30.9732 5.81042 31.3004 5.92656C31.6276 6.0427 31.9056 6.19642 32.1343 6.38772C32.363 6.57901 32.5424 6.80447 32.6655 7.06067C32.7887 7.31687 32.852 7.58673 32.852 7.87026C32.852 8.21527 32.7887 8.50221 32.6585 8.7345Z" fill="#1B1B1B"/>
<defs>
<linearGradient id="paint0_linear" x1="10.0256" y1="11.1213" x2="16.8206" y2="4.12254" gradientUnits="userSpaceOnUse">
<stop stop-color="#E83C3C"/>
<stop offset="1" stop-color="#9D3C3C"/>
</linearGradient>
<linearGradient id="paint1_linear" x1="13.3484" y1="12.5669" x2="6.72619" y2="19.3876" gradientUnits="userSpaceOnUse">
<stop stop-color="#FFE600"/>
<stop offset="0.839779" stop-color="#FFAA00"/>
<stop offset="1" stop-color="#FFE600"/>
</linearGradient>
</defs>
</svg>
