<svg width="32" height="32" viewBox="0 0 32 32" fill="none" xmlns="http://www.w3.org/2000/svg">
<path d="M16 32C24.8 32 32 24.8 32 16C32 7.2 24.8 0 16 0C7.2 0 0 7.2 0 16C0 24.8 7.2 32 16 32Z" fill="#9D3C3C"/>
<path d="M18.9992 22.0002C18.1992 22.4002 16.3992 23.5002 13.5992 17.5002C10.6992 11.6002 12.5992 10.6002 13.2992 10.2002L14.2992 9.7002L15.9992 13.2002L14.9992 13.7002C13.8992 14.3002 16.1992 18.9002 17.2992 18.4002L18.2992 17.9002L19.9992 21.4002C19.9992 21.4002 18.9992 21.9002 18.9992 22.0002Z" fill="white"/>
</svg>
